<svg width="25" height="25" viewBox="0 0 25 25" fill="none" xmlns="http://www.w3.org/2000/svg">
<path d="M12.5 0C5.6 0 0 5.6 0 12.5C0 19.4 5.6 25 12.5 25H18.75V22.5H12.5C7.075 22.5 2.5 17.925 2.5 12.5C2.5 7.075 7.075 2.5 12.5 2.5C17.925 2.5 22.5 7.075 22.5 12.5V14.2875C22.5 15.275 21.6125 16.25 20.625 16.25C19.6375 16.25 18.75 15.275 18.75 14.2875V12.5C18.75 9.05 15.95 6.25 12.5 6.25C9.05 6.25 6.25 9.05 6.25 12.5C6.25 15.95 9.05 18.75 12.5 18.75C14.225 18.75 15.8 18.05 16.925 16.9125C17.7375 18.025 19.1375 18.75 20.625 18.75C23.0875 18.75 25 16.75 25 14.2875V12.5C25 5.6 19.4 0 12.5 0ZM12.5 16.25C10.425 16.25 8.75 14.575 8.75 12.5C8.75 10.425 10.425 8.75 12.5 8.75C14.575 8.75 16.25 10.425 16.25 12.5C16.25 14.575 14.575 16.25 12.5 16.25Z" fill="white"/>
</svg>
