<svg width="21" height="27" viewBox="0 0 21 27" fill="none" xmlns="http://www.w3.org/2000/svg">
<path d="M10.5 5.79688C9.51418 5.79688 8.55051 6.0892 7.73083 6.63689C6.91115 7.18458 6.27229 7.96304 5.89504 8.87381C5.51778 9.78459 5.41908 10.7868 5.6114 11.7537C5.80372 12.7205 6.27844 13.6087 6.97551 14.3057C7.67259 15.0028 8.56072 15.4775 9.5276 15.6699C10.4945 15.8622 11.4967 15.7635 12.4074 15.3862C13.3182 15.009 14.0967 14.3701 14.6444 13.5504C15.192 12.7307 15.4844 11.7671 15.4844 10.7812C15.4829 9.45977 14.9573 8.19285 14.0228 7.25842C13.0884 6.32399 11.8215 5.79837 10.5 5.79688ZM10.5 13.0469C10.0519 13.0469 9.61387 12.914 9.24129 12.665C8.86871 12.4161 8.57831 12.0623 8.40684 11.6483C8.23536 11.2343 8.19049 10.7787 8.27791 10.3392C8.36533 9.89976 8.58111 9.49606 8.89796 9.17921C9.21481 8.86236 9.61851 8.64658 10.058 8.55916C10.4975 8.47174 10.953 8.51661 11.367 8.68809C11.781 8.85956 12.1348 9.14996 12.3838 9.52254C12.6327 9.89512 12.7656 10.3332 12.7656 10.7812C12.765 11.3819 12.5261 11.9578 12.1013 12.3826C11.6766 12.8073 11.1007 13.0462 10.5 13.0469ZM10.5 0.359375C7.7369 0.362493 5.08787 1.46151 3.13407 3.41532C1.18026 5.36912 0.0812432 8.01815 0.078125 10.7812C0.078125 19.5445 9.32663 26.1193 9.7204 26.3949C9.94891 26.5549 10.2211 26.6406 10.5 26.6406C10.7789 26.6406 11.0511 26.5549 11.2796 26.3949C13.0307 25.1054 14.633 23.6253 16.057 21.9818C19.2396 18.3218 20.9219 14.4487 20.9219 10.7812C20.9188 8.01815 19.8197 5.36912 17.8659 3.41532C15.9121 1.46151 13.2631 0.362493 10.5 0.359375ZM14.0459 20.1512C12.9658 21.3917 11.7793 22.5353 10.5 23.5691C9.22065 22.5354 8.03415 21.3917 6.95407 20.1512C5.05752 17.9594 2.79688 14.5546 2.79688 10.7812C2.79688 8.73825 3.60845 6.77893 5.05307 5.33432C6.49768 3.8897 8.457 3.07812 10.5 3.07812C12.543 3.07812 14.5023 3.8897 15.9469 5.33432C17.3915 6.77893 18.2031 8.73825 18.2031 10.7812C18.2031 14.5546 15.9425 17.9594 14.0459 20.1512Z" fill="white"/>
</svg>
