<svg width="27" height="26" viewBox="0 0 27 26" fill="none" xmlns="http://www.w3.org/2000/svg">
<path d="M16.1338 5.68011C17.238 5.89512 18.2527 6.43409 19.0482 7.22804C19.8436 8.02198 20.3836 9.03479 20.5991 10.1368L16.1338 5.68011ZM16.1338 1.16699C18.4278 1.42135 20.567 2.44666 22.2 4.07458C23.8331 5.7025 24.8631 7.83627 25.1208 10.1255L16.1338 1.16699ZM23.9904 19.1292V22.514C23.9917 22.8283 23.9272 23.1393 23.8011 23.4272C23.6749 23.7151 23.4899 23.9736 23.258 24.186C23.026 24.3984 22.7521 24.5602 22.4538 24.6608C22.1556 24.7615 21.8396 24.7989 21.526 24.7706C18.0475 24.3934 14.7061 23.207 11.7703 21.3068C9.03899 19.5745 6.72329 17.2632 4.98768 14.5371C3.07722 11.5937 1.88829 8.24243 1.51723 4.75492C1.48898 4.44292 1.52613 4.12846 1.62632 3.83157C1.72651 3.53467 1.88753 3.26186 2.09914 3.03048C2.31076 2.79911 2.56832 2.61425 2.85544 2.48767C3.14255 2.36109 3.45293 2.29557 3.76681 2.29527H7.15813C7.70674 2.28988 8.2386 2.48378 8.65456 2.84083C9.07053 3.19788 9.34223 3.69371 9.41901 4.23591C9.56215 5.31914 9.82761 6.38272 10.2103 7.40638C10.3624 7.81022 10.3953 8.24911 10.3052 8.67105C10.215 9.09298 10.0056 9.48028 9.70162 9.78705L8.26596 11.22C9.87521 14.0447 12.2185 16.3835 15.0486 17.9896L16.4843 16.5567C16.7916 16.2534 17.1797 16.0443 17.6024 15.9543C18.0252 15.8643 18.4649 15.8972 18.8695 16.049C19.8951 16.431 20.9607 16.6959 22.046 16.8388C22.5952 16.9161 23.0967 17.1922 23.4552 17.6145C23.8137 18.0368 24.0041 18.5759 23.9904 19.1292Z" stroke="white" stroke-width="2" stroke-linecap="round" stroke-linejoin="round"/>
</svg>
