<svg width="25" height="25" viewBox="0 0 25 25" fill="none" xmlns="http://www.w3.org/2000/svg">
<path d="M12.4998 18.5417L13.7082 16.1251V9.91183C15.7877 9.37171 17.3332 7.49516 17.3332 5.25008C17.3332 2.5845 15.1654 0.416748 12.4998 0.416748C9.83425 0.416748 7.6665 2.5845 7.6665 5.25008C7.6665 7.49516 9.21196 9.37171 11.2915 9.91183V16.1251L12.4998 18.5417Z" fill="white"/>
<path d="M17.6558 10.7637L17.0118 13.0933C20.1425 13.9585 22.1665 15.6224 22.1665 17.3334C22.1665 19.6195 18.1971 22.1667 12.4998 22.1667C6.80255 22.1667 2.83317 19.6195 2.83317 17.3334C2.83317 15.6224 4.85713 13.9585 7.98913 13.0921L7.34509 10.7625C3.07121 11.9442 0.416504 14.4612 0.416504 17.3334C0.416504 21.3982 5.72471 24.5834 12.4998 24.5834C19.275 24.5834 24.5832 21.3982 24.5832 17.3334C24.5832 14.4612 21.9285 11.9442 17.6558 10.7637V10.7637Z" fill="white"/>
</svg>
