<svg width="40" height="40" viewBox="0 0 40 40" fill="none" xmlns="http://www.w3.org/2000/svg">
<path d="M39.4899 29.2537C39.4619 29.2257 39.4309 29.2008 39.3974 29.1796C38.4202 28.3927 29.9756 21.5723 25.5741 17.581C25.7172 17.161 25.6667 16.9878 25.6667 16.9878L21.4837 12.8042C21.4837 12.8042 21.5415 12.9512 21.4319 13.3206C17.394 8.74462 11.5461 1.50355 10.8216 0.603179C10.8288 0.613679 10.8315 0.628116 10.8367 0.639273C10.8092 0.592679 10.7822 0.546085 10.7448 0.509991C9.95537 -0.279477 7.02391 1.37165 4.19678 4.19877C1.37031 7.02524 -0.280156 9.95671 0.509312 10.7468C0.54935 10.7827 0.593651 10.8136 0.641218 10.8387C0.62875 10.8315 0.613656 10.8289 0.601187 10.8216C1.50222 11.5481 8.74591 17.3979 13.3206 21.4352C12.9485 21.5454 12.8028 21.4831 12.8028 21.4831L16.9858 25.6673C16.9858 25.6673 17.1551 25.7277 17.5836 25.5801C21.5762 29.9815 28.3907 38.4202 29.1782 39.3987C29.2006 39.4309 29.2255 39.4617 29.2537 39.4912C29.3869 39.6245 29.5818 39.6888 29.8273 39.6888C31.0322 39.6888 33.4531 38.1518 35.8018 35.8038C38.6289 32.976 40.2794 30.0439 39.4899 29.2537ZM5.16803 4.16005C6.25216 3.07659 7.35991 2.42821 7.6434 2.71171C7.69004 2.76382 7.71432 2.83217 7.711 2.90202C7.39141 2.79505 6.58225 3.27412 5.80394 4.05308C4.95081 4.90621 4.45666 5.79543 4.69947 6.03693C4.8025 6.14127 5.02366 6.10977 5.31044 5.97458C4.56231 6.55733 3.92641 6.83952 3.72034 6.63412C3.43684 6.35193 4.08587 5.24418 5.16803 4.16005ZM1.84609 9.41005C1.60919 9.17315 1.68269 8.66521 1.99703 7.99583C1.99797 8.09231 2.03442 8.18506 2.09941 8.25637C2.54369 8.70065 4.28209 7.6828 5.98309 5.98443C7.68344 4.28408 8.69997 2.54502 8.25503 2.10074C8.08703 1.93274 7.73397 1.97343 7.26737 2.18146C8.59169 1.2404 9.6745 0.823679 10.0538 1.20234C10.6464 1.79559 9.28994 4.11412 7.02391 6.38015C4.75722 8.64683 2.43803 10.0033 1.84609 9.41005ZM9.01169 7.84424L8.75181 8.1074C8.44403 8.41387 8.13559 8.70918 7.82387 8.99268L17.3303 18.4978C16.9366 18.8758 16.5782 19.2033 16.2462 19.492L6.12944 10.4095C5.6635 10.7652 5.19953 11.092 4.74541 11.3854L14.9442 20.5407C14.7841 20.6562 14.643 20.7474 14.5038 20.838C11.174 17.8757 6.24494 13.8214 3.36137 11.4726C4.90487 10.6615 6.59144 9.26437 7.92822 7.92693C8.49456 7.35993 10.4213 5.36033 11.47 3.35877C13.7465 6.15571 17.8422 11.1366 20.8353 14.5012C20.775 14.5944 20.7238 14.6797 20.6529 14.7828L11.6157 4.71721C11.294 5.17663 10.9558 5.62427 10.6018 6.05924L19.618 16.1025C19.2561 16.5221 18.8826 16.9316 18.4978 17.3303L9.01169 7.84424ZM34.9322 34.9323C32.7036 37.1609 30.7683 38.2857 29.9867 38.4386C28.898 37.0881 22.6354 29.3476 18.715 24.996C19.4986 24.4887 20.5971 23.6133 22.1045 22.1059C22.6878 21.5264 23.2483 20.9244 23.7845 20.3012L36.4003 32.5737L37.4739 31.3124L24.8063 18.992C24.8772 18.8896 24.9297 18.803 24.9887 18.7098C29.276 22.5718 36.8505 28.7045 38.4406 29.9881C38.2968 30.6909 37.2363 32.6282 34.9322 34.9323Z" fill="#1E7DBF"/>
</svg>
