<svg width="37" height="29" viewBox="0 0 37 29" fill="none" xmlns="http://www.w3.org/2000/svg">
<path d="M30.5939 28.8334H6.40641C4.91908 28.8335 3.4881 28.2645 2.407 27.243C1.3259 26.2215 0.67666 24.8251 0.592455 23.3402L0.583496 23.0105V4.198C0.583371 3.17652 0.971026 2.19309 1.66812 1.44644C2.36521 0.699795 3.31975 0.245621 4.33883 0.175707L4.61475 0.166748H27.0106C28.0321 0.166623 29.0155 0.554277 29.7621 1.25137C30.5088 1.94846 30.963 2.903 31.0329 3.92208L31.0418 4.198V5.54175H32.3856C33.4071 5.54162 34.3905 5.92928 35.1371 6.62637C35.8838 7.32346 36.338 8.278 36.4079 9.29708L36.4168 9.573V23.0105C36.4169 24.4978 35.8479 25.9288 34.8264 27.0099C33.805 28.091 32.4085 28.7402 30.9236 28.8245L30.5939 28.8334H6.40641H30.5939ZM6.40641 26.1459H30.5939C31.3811 26.1458 32.1394 25.8497 32.7183 25.3163C33.2972 24.7829 33.6543 24.0512 33.7186 23.2667L33.7293 23.0105V9.573C33.7293 9.24828 33.6117 8.93455 33.3983 8.68983C33.1849 8.44511 32.89 8.28595 32.5683 8.24179L32.3856 8.22925H31.0418V22.1147C31.0418 22.4394 30.9242 22.7531 30.7108 22.9978C30.4974 23.2426 30.2025 23.4017 29.8808 23.4459L29.6981 23.4584C29.3734 23.4584 29.0596 23.3408 28.8149 23.1274C28.5702 22.9139 28.411 22.6191 28.3669 22.2974L28.3543 22.1147V4.198C28.3543 3.87328 28.2367 3.55955 28.0233 3.31483C27.8099 3.07011 27.515 2.91095 27.1933 2.86679L27.0106 2.85425H4.61475C4.29003 2.85426 3.9763 2.97186 3.73158 3.18529C3.48686 3.39872 3.3277 3.69355 3.28354 4.01525L3.271 4.198V23.0105C3.27103 23.7974 3.56693 24.5555 4.09996 25.1343C4.633 25.7132 5.3642 26.0704 6.14841 26.1352L6.40641 26.1459H30.5939H6.40641ZM18.9409 18.9792H24.3267C24.6671 18.9794 24.9949 19.1087 25.2436 19.3411C25.4924 19.5735 25.6437 19.8917 25.6669 20.2314C25.6901 20.5711 25.5835 20.9069 25.3686 21.171C25.1538 21.4351 24.8467 21.6078 24.5094 21.6542L24.3267 21.6667H18.9409C18.6005 21.6666 18.2727 21.5373 18.024 21.3049C17.7752 21.0724 17.6239 20.7543 17.6007 20.4146C17.5775 20.0749 17.6841 19.7391 17.8989 19.475C18.1138 19.2109 18.4209 19.0382 18.7582 18.9918L18.9409 18.9792H24.3267H18.9409ZM13.5605 12.7174C13.9169 12.7174 14.2587 12.8589 14.5107 13.1109C14.7627 13.3629 14.9043 13.7047 14.9043 14.0611V20.323C14.9043 20.6794 14.7627 21.0212 14.5107 21.2732C14.2587 21.5252 13.9169 21.6667 13.5605 21.6667H7.29866C6.94228 21.6667 6.60049 21.5252 6.34849 21.2732C6.09649 21.0212 5.95491 20.6794 5.95491 20.323V14.0611C5.95491 13.7047 6.09649 13.3629 6.34849 13.1109C6.60049 12.8589 6.94228 12.7174 7.29866 12.7174H13.5605ZM12.2168 15.4049H8.64241V18.9792H12.2168V15.4049ZM18.9409 12.7174H24.3267C24.6671 12.7175 24.9949 12.8468 25.2436 13.0792C25.4924 13.3117 25.6437 13.6299 25.6669 13.9695C25.6901 14.3092 25.5835 14.645 25.3686 14.9091C25.1538 15.1732 24.8467 15.3459 24.5094 15.3923L24.3267 15.4049H18.9409C18.598 15.4084 18.2668 15.2806 18.015 15.0478C17.7632 14.8151 17.61 14.4948 17.5866 14.1527C17.5633 13.8106 17.6716 13.4725 17.8894 13.2077C18.1072 12.9428 18.418 12.7713 18.7582 12.7281L18.9409 12.7174H24.3267H18.9409ZM7.29866 6.44116H24.3267C24.6695 6.43768 25.0008 6.5654 25.2526 6.79819C25.5043 7.03098 25.6576 7.35121 25.681 7.69332C25.7043 8.03542 25.596 8.37351 25.3782 8.63836C25.1604 8.9032 24.8496 9.07477 24.5094 9.11791L24.3267 9.12866H7.29866C6.9582 9.12856 6.63048 8.99923 6.3817 8.7668C6.13293 8.53437 5.98166 8.21617 5.95845 7.8765C5.93524 7.53684 6.04184 7.20102 6.25669 6.93692C6.47154 6.67282 6.77863 6.50011 7.11591 6.45371L7.29866 6.44116H24.3267H7.29866Z" fill="#4372C6"/>
</svg>
