<svg width="38" height="38" viewBox="0 0 38 38" fill="none" xmlns="http://www.w3.org/2000/svg">
<path d="M28.5 3.95831C25.0022 3.95831 22.1667 6.79384 22.1667 10.2916C22.1667 13.7894 25.0022 16.625 28.5 16.625C31.9961 16.6211 34.8294 13.7878 34.8333 10.2917C34.8333 6.79384 31.9978 3.95831 28.5 3.95831ZM28.5 15.0417C25.8767 15.0417 23.75 12.915 23.75 10.2917C23.75 7.66836 25.8767 5.5417 28.5 5.5417C31.1223 5.54429 33.2474 7.6694 33.25 10.2917C33.25 12.915 31.1233 15.0417 28.5 15.0417Z" fill="#218CA5"/>
<path d="M30.3153 8.14862L27.7084 10.7556L26.6847 9.73193L25.5653 10.8514L27.1486 12.4347C27.2971 12.5832 27.4984 12.6666 27.7083 12.6666C27.9183 12.6665 28.1195 12.5831 28.268 12.4347L31.4347 9.26799L30.3153 8.14862Z" fill="#218CA5"/>
<path d="M26.9166 20.5833H15.8333V22.1666H26.9166V20.5833Z" fill="#218CA5"/>
<path d="M17.4167 9.5H8.70832C5.64917 9.50349 3.17011 11.9825 3.16663 15.0417H4.75001C4.75261 12.8566 6.52332 11.086 8.70832 11.0834H17.4166C18.2911 11.0834 18.9999 11.7922 18.9999 12.6667C18.9999 13.5411 18.2911 14.25 17.4166 14.25H8.70832V15.8333H17.4166C19.1655 15.8333 20.5833 14.4156 20.5833 12.6666C20.5833 10.9177 19.1656 9.5 17.4167 9.5Z" fill="#218CA5"/>
<path d="M0.791691 12.6667C0.354469 12.6667 0 13.0211 0 13.4583V14.25H3.95831V12.6667H0.791691Z" fill="#218CA5"/>
<path d="M36.4167 22.9583V34.0416C36.4167 35.3533 35.3534 36.4166 34.0417 36.4166H15.0417C13.73 36.4166 12.6667 35.3533 12.6667 34.0416V15.0416H11.0834V34.0416C11.086 36.2267 12.8567 37.9973 15.0417 37.9999H34.0417C36.2268 37.9973 37.9974 36.2266 38 34.0416V22.9583H36.4167Z" fill="#218CA5"/>
<path d="M34.0417 0H18.2083C17.9983 7.42188e-05 17.7971 0.0834961 17.6486 0.231934L11.3153 6.56524L12.4347 7.68468L18.5361 1.58331H34.0417C35.3534 1.58331 36.4167 2.64664 36.4167 3.95831V15.0416H38V3.95831C37.9974 1.77331 36.2267 0.00259766 34.0417 0Z" fill="#218CA5"/>
<path d="M18.7682 0.232126C18.4591 -0.0770693 17.9578 -0.0771435 17.6486 0.231977L11.3153 6.56528C11.1668 6.71372 11.0834 6.91508 11.0834 7.12497V10.2917H12.6667V7.45272L17.4167 2.70272V5.54166C17.4167 5.97888 17.0622 6.33335 16.625 6.33335H15.0417V7.91666H16.625C17.9367 7.91666 19 6.85333 19 5.54166V0.791661C18.9999 0.58177 18.9166 0.380489 18.7682 0.232126Z" fill="#218CA5"/>
<path d="M4.75 21.375H3.16669C3.17018 24.4341 5.64923 26.9132 8.70838 26.9167V25.3334C6.5233 25.3307 4.75259 23.5601 4.75 21.375Z" fill="#218CA5"/>
<path d="M11.875 25.3333H8.70831V26.9166H11.875V25.3333Z" fill="#218CA5"/>
<path d="M0 22.1667V22.9584C0 23.3955 0.354469 23.75 0.791691 23.75H3.95838V22.1667H0Z" fill="#218CA5"/>
<path d="M37.3128 17.3122C36.3847 16.4266 34.9246 16.4266 33.9965 17.3122L23.0121 28.2966C22.7031 28.6057 22.7031 29.1068 23.0121 29.416L25.209 31.6129C25.3574 31.7614 25.5588 31.8448 25.7687 31.8448C25.9786 31.8447 26.1799 31.7613 26.3284 31.6129L37.3127 20.6285C37.3131 20.6281 37.3135 20.6277 37.3139 20.6273C38.2291 19.7115 38.2286 18.2273 37.3128 17.3122ZM36.1934 19.5091L25.7688 29.9337L24.6913 28.8563L35.116 18.4316C35.4174 18.1435 35.892 18.1435 36.1934 18.4316C36.1936 18.4317 36.1937 18.4319 36.1939 18.432C36.4911 18.7295 36.491 19.2117 36.1934 19.5091Z" fill="#218CA5"/>
<path d="M25.4125 30.3454L23.1452 31.4782L24.2804 29.2086L22.8641 28.5L20.6664 32.8961C20.6114 33.0061 20.5829 33.1274 20.5829 33.2504C20.5832 33.6876 20.9378 34.0418 21.375 34.0417C21.4975 34.0427 21.6185 34.0156 21.7289 33.9625L26.125 31.7617L25.4125 30.3454Z" fill="#218CA5"/>
<path d="M32.3709 20.0603L31.2512 21.1797L33.4475 23.3766L34.5672 22.2572L32.3709 20.0603Z" fill="#218CA5"/>
<path d="M21.375 32.4583H15.8333V34.0416H21.375V32.4583Z" fill="#218CA5"/>
<path d="M20.5833 28.5H15.8333V30.0833H20.5833V28.5Z" fill="#218CA5"/>
<path d="M22.9583 24.5417H15.8333V26.125H22.9583V24.5417Z" fill="#218CA5"/>
<path d="M33.25 32.4583H26.125V34.0416H33.25V32.4583Z" fill="#218CA5"/>
<path d="M33.25 28.5H30.0833V30.0833H33.25V28.5Z" fill="#218CA5"/>
</svg>
