<svg width="34" height="29" viewBox="0 0 34 29" fill="none" xmlns="http://www.w3.org/2000/svg">
<path d="M6.52085 0.333252C5.36606 0.333252 4.25856 0.791993 3.44199 1.60856C2.62543 2.42512 2.16669 3.53262 2.16669 4.68742V11.8235C2.87917 11.2348 3.68088 10.7634 4.54169 10.427V4.68742C4.54169 3.59492 5.42835 2.70825 6.52085 2.70825H29.4792C30.5717 2.70825 31.4584 3.59492 31.4584 4.68742V21.3124C31.4584 22.4049 30.5717 23.2916 29.4792 23.2916H16.3771L18.7521 25.6666H29.4792C30.051 25.6666 30.6172 25.554 31.1455 25.3351C31.6737 25.1163 32.1537 24.7956 32.558 24.3913C32.9624 23.987 33.2831 23.507 33.5019 22.9787C33.7207 22.4504 33.8334 21.8842 33.8334 21.3124V4.68742C33.8334 3.53262 33.3746 2.42512 32.558 1.60856C31.7415 0.791993 30.634 0.333252 29.4792 0.333252H6.52085Z" fill="#009452"/>
<path d="M12.7164 11.4166C13.6238 12.0558 14.4013 12.8618 15.0075 13.7916H26.3125C26.6275 13.7916 26.9295 13.6665 27.1522 13.4438C27.3749 13.2211 27.5 12.919 27.5 12.6041C27.5 12.2891 27.3749 11.9871 27.1522 11.7644C26.9295 11.5417 26.6275 11.4166 26.3125 11.4166H12.7164Z" fill="#009452"/>
<path d="M23.1458 18.5416H16.4167C16.4167 17.7182 16.3027 16.9218 16.0889 16.1666H23.1458C23.4608 16.1666 23.7628 16.2917 23.9855 16.5144C24.2082 16.7371 24.3333 17.0391 24.3333 17.3541C24.3333 17.669 24.2082 17.9711 23.9855 18.1938C23.7628 18.4165 23.4608 18.5416 23.1458 18.5416Z" fill="#009452"/>
<path d="M9.68756 6.66656C9.37262 6.66656 9.07057 6.79168 8.84787 7.01438C8.62517 7.23708 8.50006 7.53912 8.50006 7.85407C8.50006 8.16901 8.62517 8.47106 8.84787 8.69376C9.07057 8.91645 9.37262 9.04157 9.68756 9.04157H19.9792C20.2942 9.04157 20.5962 8.91645 20.8189 8.69376C21.0416 8.47106 21.1667 8.16901 21.1667 7.85407C21.1667 7.53912 21.0416 7.23708 20.8189 7.01438C20.5962 6.79168 20.2942 6.66656 19.9792 6.66656H9.68756Z" fill="#009452"/>
<path d="M7.70836 25.6666C9.18799 25.6687 10.6313 25.2081 11.8361 24.3492L15.9734 28.4849C16.0821 28.6016 16.2132 28.6952 16.3588 28.7601C16.5045 28.825 16.6618 28.8599 16.8212 28.8627C16.9806 28.8655 17.139 28.8362 17.2869 28.7764C17.4348 28.7167 17.5691 28.6278 17.6818 28.5151C17.7946 28.4023 17.8835 28.268 17.9432 28.1201C18.0029 27.9722 18.0323 27.8139 18.0295 27.6544C18.0266 27.495 17.9917 27.3377 17.9268 27.1921C17.8619 27.0464 17.7684 26.9153 17.6517 26.8066L13.516 22.6693C14.4414 21.3674 14.9024 19.7924 14.8252 18.197C14.7479 16.6017 14.1369 15.0785 13.0901 13.8721C12.0434 12.6657 10.6216 11.846 9.05309 11.5446C7.48456 11.2432 5.86024 11.4775 4.44089 12.21C3.02154 12.9425 1.88947 14.1307 1.22643 15.5838C0.563379 17.0369 0.40781 18.6707 0.784691 20.2228C1.16157 21.7749 2.04904 23.1554 3.30464 24.1426C4.56024 25.1298 6.11113 25.6665 7.70836 25.6666ZM7.70836 23.2916C6.44858 23.2916 5.2404 22.7911 4.3496 21.9003C3.4588 21.0095 2.95836 19.8014 2.95836 18.5416C2.95836 17.2818 3.4588 16.0736 4.3496 15.1828C5.2404 14.292 6.44858 13.7916 7.70836 13.7916C8.96814 13.7916 10.1763 14.292 11.0671 15.1828C11.9579 16.0736 12.4584 17.2818 12.4584 18.5416C12.4584 19.8014 11.9579 21.0095 11.0671 21.9003C10.1763 22.7911 8.96814 23.2916 7.70836 23.2916Z" fill="#009452"/>
</svg>
