<svg width="35" height="35" viewBox="0 0 35 35" fill="none" xmlns="http://www.w3.org/2000/svg">
<path d="M12.5 0C7.6825 0 3.75 3.9325 3.75 8.75C3.75 11.7625 5.2875 14.44 7.6175 16.0163C3.15875 17.9287 0 22.35 0 27.5H2.5C2.5 21.9625 6.9625 17.5 12.5 17.5C14.22 17.5 15.8175 17.9475 17.225 18.7125C15.785 20.4916 14.9996 22.7112 15 25C15 30.5075 19.4925 35 25 35C30.5075 35 35 30.5075 35 25C35 19.4925 30.5075 15 25 15C22.8937 15.0028 20.8424 15.6723 19.14 16.9125C18.5875 16.5663 17.99 16.275 17.3825 16.015C18.5722 15.2127 19.5468 14.1308 20.2211 12.8642C20.8954 11.5976 21.2487 10.1849 21.25 8.75C21.25 3.9325 17.3175 0 12.5 0ZM12.5 2.5C15.9663 2.5 18.75 5.28375 18.75 8.75C18.75 12.2163 15.9663 15 12.5 15C9.03375 15 6.25 12.2163 6.25 8.75C6.25 5.28375 9.03375 2.5 12.5 2.5ZM25 17.5C29.1575 17.5 32.5 20.8425 32.5 25C32.5 29.1575 29.1575 32.5 25 32.5C20.8425 32.5 17.5 29.1575 17.5 25C17.5 20.8425 20.8425 17.5 25 17.5ZM23.75 20V23.75H20V26.25H23.75V30H26.25V26.25H30V23.75H26.25V20H23.75Z" fill="#F6AF26"/>
</svg>
