<svg width="32" height="21" viewBox="0 0 32 21" fill="none" xmlns="http://www.w3.org/2000/svg">
<path d="M30.0458 0.520264H1.92097C0.887131 0.520264 0.0458984 1.3615 0.0458984 2.39533V18.8931C0.0458984 19.927 0.887131 20.768 1.92097 20.768H22.3708C22.716 20.768 22.9959 20.4882 22.9959 20.1431C22.9959 19.798 22.716 19.518 22.3708 19.518H1.92097C1.57623 19.518 1.29588 19.2377 1.29588 18.8931V2.39533C1.29588 2.05079 1.57623 1.77024 1.92097 1.77024H30.0458C30.3906 1.77024 30.6709 2.05079 30.6709 2.39533V18.8931C30.6709 19.2377 30.3906 19.518 30.0458 19.518H27.3708C27.0258 19.518 26.7459 19.798 26.7459 20.1431C26.7459 20.4882 27.0258 20.768 27.3708 20.768H30.0458C31.0797 20.768 31.9209 19.927 31.9209 18.8931V2.39533C31.9209 1.3615 31.0797 0.520264 30.0458 0.520264Z" fill="white"/>
<path d="M5.01468 13.9576V4.14511C5.01468 3.79998 4.73472 3.52002 4.38979 3.52002C4.04427 3.52002 3.7647 3.79998 3.7647 4.14511V13.9576C3.7647 14.3027 4.04427 14.5827 4.38979 14.5827C4.73472 14.5827 5.01468 14.3027 5.01468 13.9576Z" fill="white"/>
<path d="M7.3271 13.9576V4.83261C7.3271 4.48748 7.04734 4.20752 6.70221 4.20752C6.35688 4.20752 6.07712 4.48748 6.07712 4.83261V13.9576C6.07712 14.3027 6.35688 14.5826 6.70221 14.5826C7.04734 14.5826 7.3271 14.3027 7.3271 13.9576Z" fill="white"/>
<path d="M9.63952 13.9579V6.14535C9.63952 5.80022 9.35975 5.52026 9.01462 5.52026C8.66949 5.52026 8.38973 5.80022 8.38973 6.14535V13.9579C8.38973 14.303 8.66949 14.583 9.01462 14.583C9.35975 14.583 9.63952 14.303 9.63952 13.9579Z" fill="white"/>
<path d="M11.9521 13.9576V4.14511C11.9521 3.79998 11.6724 3.52002 11.327 3.52002C10.9819 3.52002 10.7021 3.79998 10.7021 4.14511V13.9576C10.7021 14.3027 10.9819 14.5827 11.327 14.5827C11.6724 14.5827 11.9521 14.3027 11.9521 13.9576Z" fill="white"/>
<path d="M14.2645 13.9577V10.5441C14.2645 10.199 13.985 9.91919 13.6395 9.91919C13.2945 9.91919 13.0146 10.199 13.0146 10.5441V13.9577C13.0146 14.3028 13.2945 14.5827 13.6395 14.5827C13.985 14.5827 14.2645 14.3028 14.2645 13.9577Z" fill="white"/>
<path d="M16.5772 13.9576V6.60072C16.5772 6.2554 16.2974 5.97583 15.9521 5.97583C15.6069 5.97583 15.327 6.2554 15.327 6.60072V13.9576C15.327 14.3027 15.6069 14.5827 15.9521 14.5827C16.2974 14.5827 16.5772 14.3027 16.5772 13.9576Z" fill="white"/>
<path d="M18.8898 13.9576V4.14511C18.8898 3.79998 18.6098 3.52002 18.2647 3.52002C17.9194 3.52002 17.6398 3.79998 17.6398 4.14511V13.9576C17.6398 14.3027 17.9194 14.5827 18.2647 14.5827C18.6098 14.5827 18.8898 14.3027 18.8898 13.9576Z" fill="white"/>
<path d="M21.2022 13.9577V8.48793C21.2022 8.1426 20.9222 7.86304 20.5771 7.86304C20.232 7.86304 19.9522 8.1426 19.9522 8.48793V13.9577C19.9522 14.3028 20.232 14.5828 20.5771 14.5828C20.9222 14.5828 21.2022 14.3028 21.2022 13.9577Z" fill="white"/>
<path d="M22.8897 4.58276C22.5446 4.58276 22.2646 4.86253 22.2646 5.20766V13.9577C22.2646 14.3029 22.5446 14.5828 22.8897 14.5828C23.2346 14.5828 23.5146 14.3029 23.5146 13.9577V5.20766C23.5146 4.86253 23.2346 4.58276 22.8897 4.58276Z" fill="white"/>
<path d="M25.2021 5.97583C24.857 5.97583 24.577 6.2554 24.577 6.60072V13.9576C24.577 14.3027 24.857 14.5827 25.2021 14.5827C25.5474 14.5827 25.8272 14.3027 25.8272 13.9576V6.60072C25.8272 6.2554 25.5474 5.97583 25.2021 5.97583Z" fill="white"/>
<path d="M28.1396 13.9576V4.14511C28.1396 3.79998 27.8599 3.52002 27.5145 3.52002C27.1696 3.52002 26.8896 3.79998 26.8896 4.14511V13.9576C26.8896 14.3027 27.1696 14.5827 27.5145 14.5827C27.8599 14.5827 28.1396 14.3027 28.1396 13.9576Z" fill="white"/>
<path d="M4.95905 18.1762C5.03395 18.219 5.12325 18.2408 5.22441 18.2408C5.32519 18.2408 5.41449 18.219 5.48958 18.1762C5.58044 18.1241 5.62849 18.0447 5.62849 17.946V17.5964H5.70573C5.76059 17.5964 5.84113 17.5748 5.91351 17.4721C5.96448 17.3999 5.99035 17.3192 5.99035 17.232C5.99035 17.1422 5.96895 17.0618 5.92674 16.9931C5.87615 16.911 5.7997 16.8678 5.70553 16.8678H5.6283V16.6639C5.6283 16.5655 5.57888 16.4836 5.48861 16.4334C5.41371 16.392 5.3248 16.3706 5.22441 16.3706C5.12364 16.3706 5.03492 16.3916 4.96002 16.4334C4.94971 16.439 4.93998 16.4451 4.93103 16.4517L5.36001 15.5914L5.36274 15.5855C5.38122 15.5412 5.38978 15.5058 5.38978 15.4739C5.38978 15.405 5.36332 15.3064 5.23862 15.2276C5.15204 15.1731 5.06702 15.1453 4.9857 15.1453C4.83454 15.1453 4.71625 15.2171 4.64388 15.354L3.7258 17.1371C3.6972 17.19 3.68281 17.2447 3.68281 17.2997C3.68281 17.3875 3.71296 17.4624 3.76977 17.5161C3.826 17.5694 3.89798 17.5962 3.98339 17.5962H4.82034V17.946C4.82034 18.0449 4.86839 18.1245 4.95905 18.1762ZM4.72326 16.8678L4.82034 16.6735V16.8678H4.72326Z" fill="white"/>
<path d="M6.9345 18.0243C7.12574 18.1838 7.38838 18.2647 7.71425 18.2647C8.02456 18.2647 8.28039 18.1824 8.47475 18.02C8.67397 17.8534 8.77494 17.5964 8.77494 17.256V17.1803C8.77494 16.8494 8.67377 16.6023 8.47416 16.4461C8.28156 16.2959 8.02339 16.2194 7.70647 16.2194H7.54889L7.57476 15.8739H8.3588C8.42125 15.8739 8.5086 15.8523 8.57066 15.749C8.61093 15.6813 8.63155 15.6008 8.63155 15.5099C8.63155 15.4187 8.61093 15.3381 8.57066 15.2706C8.5086 15.1673 8.42125 15.1455 8.3588 15.1455H7.08975C7.0096 15.1455 6.90882 15.1932 6.88528 15.4204L6.77769 16.4243C6.77225 16.4854 6.76933 16.5258 6.76933 16.548C6.76933 16.6507 6.7952 16.7321 6.84618 16.7904C6.90026 16.8531 6.98645 16.8844 7.10181 16.8844H7.70647C7.79188 16.8844 7.85511 16.907 7.89947 16.9529C7.94421 16.9996 7.96678 17.0762 7.96678 17.1805V17.256C7.96678 17.4552 7.88896 17.5361 7.6985 17.5361C7.61659 17.5361 7.55006 17.52 7.50103 17.4877C7.46251 17.4626 7.44617 17.4324 7.44617 17.3873C7.44617 17.2871 7.41582 17.2068 7.3559 17.149C7.2952 17.0904 7.19559 17.0628 7.04209 17.0628C6.91641 17.0628 6.82166 17.0887 6.75221 17.142C6.67653 17.2003 6.63801 17.2976 6.63801 17.4311C6.6382 17.6608 6.73762 17.8602 6.9345 18.0243Z" fill="white"/>
<path d="M10.6977 15.8739C10.7774 15.8739 10.8438 15.89 10.895 15.9215C10.9434 15.9517 10.95 15.9836 10.95 16.0108C10.95 16.1305 11.0041 16.3313 11.366 16.3313C11.493 16.3313 11.5854 16.3064 11.6485 16.2542C11.716 16.1986 11.75 16.1089 11.75 15.9869C11.75 15.7706 11.6603 15.5739 11.4827 15.4023C11.3064 15.2318 11.0488 15.1453 10.7177 15.1453C10.3891 15.1453 10.1208 15.2289 9.92026 15.3933C9.71403 15.5626 9.60956 15.8264 9.60956 16.1779V17.232C9.60956 17.5828 9.71034 17.8464 9.90917 18.0155C10.1031 18.1809 10.3632 18.2645 10.6819 18.2645C10.9979 18.2645 11.2562 18.1809 11.4506 18.0155C11.6492 17.8464 11.7502 17.5828 11.7502 17.232V17.1964C11.7502 16.8719 11.6621 16.6324 11.4885 16.4846C11.3193 16.3404 11.0946 16.2671 10.821 16.2671C10.6615 16.2671 10.5267 16.2949 10.4175 16.3497V16.1779C10.4175 15.9649 10.5012 15.8739 10.6977 15.8739ZM10.9422 17.2885C10.9422 17.5628 10.8105 17.5997 10.6817 17.5997C10.5512 17.5997 10.4175 17.5628 10.4175 17.2885V17.2149C10.4175 17.0139 10.493 16.932 10.6778 16.932C10.8086 16.932 10.9422 16.97 10.9422 17.2515V17.2885Z" fill="white"/>
<path d="M13.0278 18.1794C13.1021 18.2201 13.1908 18.2407 13.2912 18.2407C13.3916 18.2407 13.4799 18.2201 13.5546 18.1794C13.6451 18.1304 13.6953 18.0508 13.6953 17.9561V15.4262C13.6953 15.3649 13.6731 15.2773 13.5671 15.2083C13.4949 15.1614 13.4142 15.1375 13.327 15.1375C13.2615 15.1375 13.2056 15.1518 13.1632 15.1789L12.6391 15.4964C12.5332 15.5585 12.4774 15.6594 12.4774 15.788C12.4774 15.8721 12.5025 15.9483 12.5513 16.0147C12.6062 16.089 12.6803 16.1285 12.7659 16.1285C12.8085 16.1285 12.8496 16.1182 12.8871 16.0991V17.9561C12.8871 18.051 12.9369 18.1304 13.0278 18.1794Z" fill="white"/>
<path d="M15.8484 17.4824C15.8239 17.5069 15.7665 17.5361 15.632 17.5361C15.3737 17.5361 15.3737 17.44 15.3737 17.3992C15.3737 17.2632 15.3159 17.1947 15.2673 17.1608C15.2056 17.1186 15.1079 17.0986 14.9597 17.0986C14.8237 17.0986 14.7322 17.1198 14.6717 17.1649C14.604 17.2153 14.5698 17.3007 14.5698 17.4192C14.5698 17.6383 14.6601 17.8365 14.8377 18.0077C15.0145 18.1783 15.2752 18.2647 15.6122 18.2647C15.9344 18.2647 16.1989 18.1842 16.3989 18.0256C16.6057 17.8618 16.7102 17.6083 16.7102 17.2719V17.1964C16.7102 16.9286 16.602 16.7241 16.395 16.5965C16.446 16.5457 16.489 16.4821 16.5242 16.4066C16.5843 16.2764 16.6149 16.1278 16.6149 15.9649C16.6149 15.591 16.4445 15.1455 15.6322 15.1455C15.2974 15.1455 15.0437 15.2276 14.8787 15.3891C14.7134 15.5511 14.6295 15.7404 14.6295 15.9513C14.6295 16.0821 14.6593 16.1712 14.7204 16.2233C14.7787 16.2735 14.8795 16.2957 15.0478 16.2957C15.182 16.2957 15.277 16.2696 15.3379 16.2155C15.4015 16.1595 15.4336 16.0799 15.4336 15.9795C15.4336 15.9218 15.4534 15.9091 15.461 15.9042C15.4791 15.8932 15.5252 15.8739 15.6322 15.8739C15.7752 15.8739 15.8309 15.927 15.8309 16.0632C15.8309 16.128 15.824 16.1801 15.8104 16.2184C15.804 16.2369 15.7927 16.2612 15.7756 16.2714C15.7519 16.2856 15.7295 16.2951 15.7093 16.2992C15.6859 16.3046 15.6548 16.307 15.6169 16.307C15.5355 16.307 15.3455 16.3395 15.3455 16.6395C15.3455 16.9396 15.5349 16.9719 15.6165 16.9719C15.7207 16.9719 15.7982 16.9885 15.8468 17.0214C15.8927 17.0527 15.9025 17.1336 15.9025 17.1964V17.2717C15.9025 17.3741 15.8838 17.4468 15.8484 17.4824Z" fill="white"/>
<path d="M17.5332 17.3093V17.3565C17.5332 17.6659 17.6363 17.899 17.8398 18.0488C18.0343 18.192 18.2919 18.2647 18.6055 18.2647C18.9189 18.2647 19.1759 18.192 19.3693 18.0486C19.5713 17.8988 19.6738 17.6659 19.6738 17.3565V17.3093C19.6738 16.9595 19.5495 16.7087 19.3036 16.5608C19.4518 16.4542 19.5783 16.2676 19.5783 15.9418C19.5783 15.6744 19.4857 15.4711 19.3034 15.3371C19.1296 15.21 18.895 15.1453 18.6055 15.1453C18.3158 15.1453 18.0808 15.21 17.9075 15.3371C17.725 15.4711 17.6328 15.6744 17.6328 15.9418C17.6328 16.2671 17.7588 16.4536 17.9067 16.5604C17.6587 16.7083 17.5332 16.9593 17.5332 17.3093ZM18.3411 17.197C18.3411 16.9918 18.4203 16.9042 18.6055 16.9042C18.7878 16.9042 18.8656 16.9918 18.8656 17.197V17.2865C18.8656 17.5626 18.7341 17.5997 18.6055 17.5997C18.4748 17.5997 18.3411 17.5626 18.3411 17.2865V17.197ZM18.6055 16.2394C18.4921 16.2394 18.4168 16.2032 18.4168 16.0268C18.4168 15.8472 18.4921 15.8104 18.6055 15.8104C18.7188 15.8104 18.7942 15.8472 18.7942 16.0268C18.7942 16.2032 18.7188 16.2394 18.6055 16.2394Z" fill="white"/>
<path d="M21.5728 17.5361C21.4928 17.5361 21.4265 17.52 21.3755 17.4885C21.3269 17.4585 21.3207 17.4264 21.3207 17.3992C21.3207 17.2795 21.2664 17.0787 20.9045 17.0787C20.7775 17.0787 20.6853 17.104 20.6222 17.1558C20.5549 17.2114 20.5205 17.3015 20.5205 17.4231C20.5205 17.6394 20.6106 17.8361 20.7878 18.0077C20.9641 18.1781 21.2216 18.2647 21.553 18.2647C21.8814 18.2647 22.1496 18.1813 22.3502 18.0167C22.5565 17.8474 22.6611 17.5836 22.6611 17.232V16.178C22.6611 15.8272 22.5603 15.5636 22.3615 15.3945C22.1672 15.2292 21.9072 15.1455 21.5888 15.1455C21.2728 15.1455 21.0142 15.2292 20.8199 15.3945C20.6213 15.5636 20.5205 15.8272 20.5205 16.178V16.214C20.5205 16.5383 20.6086 16.7776 20.7821 16.9254C20.9512 17.0696 21.1759 17.1429 21.4495 17.1429C21.609 17.1429 21.744 17.1151 21.853 17.0603V17.232C21.853 17.4451 21.7693 17.5361 21.5728 17.5361ZM21.3284 16.1218C21.3284 15.8474 21.46 15.8103 21.5888 15.8103C21.7195 15.8103 21.853 15.8474 21.853 16.1218V16.1955C21.853 16.3961 21.7775 16.478 21.5926 16.478C21.4621 16.478 21.3284 16.44 21.3284 16.1585V16.1218Z" fill="white"/>
<path d="M25.505 18.1153C25.5525 18.0443 25.5766 17.9626 25.5766 17.8725C25.5766 17.7814 25.5521 17.7005 25.5035 17.6314C25.4338 17.533 25.3517 17.5122 25.2947 17.5122H24.3617C24.3759 17.4902 24.3992 17.4624 24.437 17.4289C24.5192 17.3556 24.6204 17.2793 24.7373 17.2017C24.8603 17.1202 24.9842 17.0291 25.106 16.9311C25.234 16.8282 25.3447 16.6996 25.4354 16.5486C25.529 16.3922 25.5766 16.2231 25.5766 16.0459C25.5766 15.7698 25.4704 15.5471 25.2607 15.3836C25.0583 15.2257 24.8198 15.1455 24.5521 15.1455C24.2914 15.1455 24.0609 15.2224 23.8665 15.3741C23.6654 15.5315 23.5632 15.7432 23.5632 16.0031C23.5632 16.3649 23.7944 16.4188 23.9317 16.4188C24.0498 16.4188 24.1482 16.3885 24.2237 16.3284C24.3259 16.2472 24.3475 16.1539 24.3475 16.0898C24.3475 16.0112 24.3654 15.9558 24.4 15.9251C24.4393 15.8906 24.4903 15.8739 24.556 15.8739C24.6307 15.8739 24.6829 15.892 24.7155 15.929C24.7513 15.9692 24.7685 16.014 24.7685 16.0657C24.7685 16.1356 24.7323 16.2122 24.6611 16.2933C24.5786 16.3871 24.4759 16.4786 24.3549 16.5657L23.9893 16.8394C23.8619 16.9352 23.7518 17.0453 23.6619 17.1667C23.5648 17.2972 23.5156 17.432 23.5156 17.5667V17.9548C23.5156 18.0151 23.5387 18.1013 23.649 18.1703C23.7235 18.217 23.8014 18.2408 23.88 18.2408H25.2961C25.3533 18.2408 25.4362 18.219 25.505 18.1153Z" fill="white"/>
<path d="M28.2583 18.0155C28.4558 17.8462 28.556 17.5828 28.556 17.232V16.178C28.556 15.8274 28.4558 15.5638 28.2583 15.3949C28.0651 15.2296 27.8064 15.1455 27.4898 15.1455C27.1766 15.1455 26.9202 15.2296 26.728 15.3949C26.5309 15.5638 26.4311 15.8274 26.4311 16.178V17.232C26.4311 17.5828 26.5309 17.8462 26.728 18.0151C26.9202 18.1809 27.1768 18.2647 27.4898 18.2647C27.8064 18.2647 28.0651 18.1809 28.2583 18.0155ZM27.7478 17.232C27.7478 17.5001 27.6175 17.5361 27.4898 17.5361C27.3661 17.5361 27.2393 17.5001 27.2393 17.232V16.178C27.2393 15.9101 27.3661 15.8739 27.4898 15.8739C27.6175 15.8739 27.7478 15.9101 27.7478 16.178V17.232Z" fill="white"/>
<path d="M14.2632 7.87717C14.184 7.54118 13.8474 7.33301 13.5116 7.412L13.4813 7.419C13.1453 7.49818 12.9369 7.83437 13.0161 8.17055C13.0836 8.45848 13.3404 8.65244 13.6239 8.65244C13.6712 8.65244 13.7192 8.64719 13.7675 8.63571L13.7978 8.62871C14.1336 8.54972 14.3422 8.21335 14.2632 7.87717Z" fill="white"/>
<path d="M24.8124 19.531L24.7825 19.538C24.4463 19.6168 24.2377 19.9532 24.3161 20.2891C24.3838 20.5773 24.6406 20.7718 24.9241 20.7718C24.9714 20.7718 25.0194 20.7666 25.0673 20.7551L25.0978 20.7481C25.4338 20.6693 25.6424 20.3331 25.5638 19.9971C25.485 19.6607 25.1488 19.4524 24.8124 19.531Z" fill="white"/>
</svg>
