<svg width="25" height="25" viewBox="0 0 25 25" fill="none" xmlns="http://www.w3.org/2000/svg">
<path d="M22.0703 0.976562H2.92969C1.31416 0.976562 0 2.29073 0 3.90625V20.1172C0 22.2712 1.75228 24.0234 3.90625 24.0234H21.0938C23.2477 24.0234 25 22.2712 25 20.1172C25 19.5778 24.5628 19.1406 24.0234 19.1406C23.484 19.1406 23.0469 19.5778 23.0469 20.1172C23.0469 21.1941 22.1706 22.0703 21.0938 22.0703H3.90625C2.82936 22.0703 1.95312 21.1941 1.95312 20.1172V6.88477H23.0469V15.2344C23.0469 15.7738 23.484 16.2109 24.0234 16.2109C24.5628 16.2109 25 15.7738 25 15.2344V3.90625C25 2.29073 23.6858 0.976562 22.0703 0.976562ZM18.1152 2.92969C18.6537 2.92969 19.0918 3.36781 19.0918 3.90625C19.0918 4.44469 18.6537 4.88281 18.1152 4.88281C17.5768 4.88281 17.1387 4.44469 17.1387 3.90625C17.1387 3.36781 17.5768 2.92969 18.1152 2.92969ZM22.998 3.90625C22.998 4.44469 22.5599 4.88281 22.0215 4.88281C21.483 4.88281 21.0449 4.44469 21.0449 3.90625C21.0449 3.36781 21.483 2.92969 22.0215 2.92969C22.5599 2.92969 22.998 3.36781 22.998 3.90625ZM1.95312 3.90625C1.95312 3.36781 2.39124 2.92969 2.92969 2.92969H15.3536C15.2451 3.23544 15.1855 3.56388 15.1855 3.90625C15.1855 4.26693 15.2514 4.61235 15.3711 4.93164H1.95312V3.90625ZM18.8673 15.9508C19.1786 15.6025 19.3363 15.102 19.3359 14.4632C19.3359 14.3282 19.3283 14.1964 19.3136 14.0715L19.3031 13.9833C19.301 13.9654 19.2995 13.9473 19.2984 13.9292C19.2354 13.5324 19.0905 13.2051 18.8671 12.9555C18.3512 12.3787 17.4732 12.2566 16.8278 12.2559H16.8095C16.1652 12.2564 15.2878 12.3783 14.7713 12.9555C14.636 13.1067 14.5273 13.2986 14.4468 13.5254H15.4785C16.0179 13.5254 16.4551 13.9626 16.4551 14.502C16.4551 15.0414 16.0179 15.4785 15.4785 15.4785H12.554C12.5105 15.6567 12.4681 15.8041 12.4454 15.88C12.4439 15.8852 12.4424 15.8903 12.4407 15.8955C12.2746 16.4209 12.0201 16.8776 11.6844 17.2529C10.8952 18.1353 9.68723 18.6024 8.19149 18.6035H8.17108C6.67362 18.6018 5.46589 18.1347 4.6772 17.2529C4.17805 16.695 3.86868 15.9979 3.75767 15.1808C3.75347 15.1495 3.75061 15.1182 3.74947 15.0867L3.7468 15.064C3.72314 14.8636 3.71113 14.6551 3.71094 14.4442C3.71017 13.3101 4.03538 12.3709 4.67701 11.6535C5.46646 10.7712 6.67439 10.3041 8.17032 10.3029H8.19035C9.03339 10.3039 9.78107 10.4473 10.4137 10.729C10.9064 10.9486 11.1279 11.5259 10.9083 12.0186C10.6888 12.5113 10.1116 12.7327 9.61895 12.5132C9.23729 12.3432 8.75607 12.2566 8.1892 12.2559H8.17108C7.52678 12.2564 6.64921 12.3783 6.13289 12.9555C5.82142 13.3038 5.66368 13.8042 5.66406 14.443C5.66425 14.5781 5.67169 14.7099 5.68657 14.8348L5.69687 14.9229C5.69897 14.9408 5.70068 14.959 5.70183 14.9771C5.76477 15.3738 5.90954 15.7011 6.13289 15.9508C6.64883 16.5276 7.52678 16.6496 8.17242 16.6504H8.19054C8.83484 16.6498 9.71241 16.5279 10.2287 15.9508C10.3441 15.8216 10.4403 15.6631 10.516 15.4785H9.61914C9.07974 15.4785 8.64258 15.0414 8.64258 14.502C8.64258 13.9626 9.07974 13.5254 9.61914 13.5254H12.4228C12.4739 13.3043 12.5278 13.1157 12.5546 13.0262C12.5561 13.0211 12.5576 13.0159 12.5593 13.011C12.7254 12.4853 12.9799 12.0287 13.3156 11.6533C14.1048 10.771 15.3128 10.3041 16.8085 10.3027H16.8289C18.3264 10.3045 19.5341 10.7716 20.3228 11.6533C20.822 12.2114 21.1313 12.9086 21.2423 13.7255C21.2465 13.7568 21.2494 13.788 21.2505 13.8195L21.2532 13.8422C21.2769 14.0427 21.2889 14.2511 21.2891 14.4621C21.2898 15.5964 20.9646 16.5354 20.323 17.2529C19.5335 18.1353 18.3256 18.6022 16.8297 18.6035H16.8097C15.9666 18.6024 15.2189 18.4589 14.5863 18.1772C14.0936 17.9577 13.8721 17.3803 14.0917 16.8877C14.3112 16.395 14.8884 16.1736 15.3811 16.3931C15.7627 16.563 16.2439 16.6496 16.8108 16.6504H16.8289C17.4734 16.6498 18.3508 16.5279 18.8673 15.9508Z" fill="white"/>
</svg>
