<svg width="31" height="32" viewBox="0 0 31 32" fill="none" xmlns="http://www.w3.org/2000/svg">
<path d="M15.6511 31.0439C7.3667 31.0439 0.66864 24.1598 0.66864 15.6453C0.66864 7.1307 7.3667 0.246582 15.6511 0.246582C23.9356 0.246582 30.6336 7.1307 30.6336 15.6453C30.6336 24.1598 23.9356 31.0439 15.6511 31.0439ZM15.6511 2.05819C8.33615 2.05819 2.43129 8.12708 2.43129 15.6453C2.43129 23.1634 8.33615 29.2323 15.6511 29.2323C22.9661 29.2323 28.871 23.1634 28.871 15.6453C28.871 8.12708 22.9661 2.05819 15.6511 2.05819Z" fill="#A6A6A6"/>
<path d="M15.3867 24.4315L14.1529 23.1634L21.4678 15.6452L14.1529 8.12701L15.3867 6.85889L23.9356 15.6452L15.3867 24.4315Z" fill="#A6A6A6"/>
<path d="M7.71921 14.7393H22.7017V16.5509H7.71921V14.7393Z" fill="#A6A6A6"/>
</svg>
