<svg width="31" height="32" viewBox="0 0 31 32" fill="none" xmlns="http://www.w3.org/2000/svg">
<path d="M15.0331 31.2681C6.74864 31.2681 0.0505829 24.3839 0.0505829 15.8694C0.0505829 7.35482 6.74864 0.470703 15.0331 0.470703C23.3175 0.470703 30.0156 7.35482 30.0156 15.8694C30.0156 24.3839 23.3175 31.2681 15.0331 31.2681ZM15.0331 2.28231C7.7181 2.28231 1.81323 8.3512 1.81323 15.8694C1.81323 23.3876 7.7181 29.4565 15.0331 29.4565C22.3481 29.4565 28.2529 23.3876 28.2529 15.8694C28.2529 8.3512 22.3481 2.28231 15.0331 2.28231Z" fill="#A6A6A6"/>
<path d="M15.2975 24.6556L6.74866 15.8693L15.2975 7.08301L16.5313 8.35113L9.21636 15.8693L16.5313 23.3875L15.2975 24.6556Z" fill="#A6A6A6"/>
<path d="M7.98248 14.9634H22.965V16.775H7.98248V14.9634Z" fill="#A6A6A6"/>
</svg>
