<svg width="25" height="27" viewBox="0 0 25 27" fill="none" xmlns="http://www.w3.org/2000/svg">
<path d="M13.2128 14.7336C12.8197 15.1266 12.1803 15.1266 11.7873 14.7336C11.4784 14.4248 10.9776 14.4248 10.6687 14.7336C10.3597 15.0425 10.3597 15.5434 10.6687 15.8523C11.1735 16.3572 11.8368 16.6097 12.5001 16.6097C13.1634 16.6097 13.8265 16.3572 14.3315 15.8523C14.6404 15.5434 14.6404 15.0426 14.3315 14.7336C14.0225 14.4247 13.5216 14.4247 13.2128 14.7336Z" fill="white"/>
<path d="M15.1367 12.1289C15.5736 12.1289 15.9277 11.7748 15.9277 11.3379C15.9277 10.901 15.5736 10.5469 15.1367 10.5469C14.6999 10.5469 14.3457 10.901 14.3457 11.3379C14.3457 11.7748 14.6999 12.1289 15.1367 12.1289Z" fill="white"/>
<path d="M9.8633 12.1289C10.3002 12.1289 10.6543 11.7748 10.6543 11.3379C10.6543 10.901 10.3002 10.5469 9.8633 10.5469C9.42643 10.5469 9.07228 10.901 9.07228 11.3379C9.07228 11.7748 9.42643 12.1289 9.8633 12.1289Z" fill="white"/>
<path d="M24.6964 16.0483C24.5966 15.9345 24.5009 15.8155 24.412 15.6948C23.5253 14.4901 23.3869 12.878 24.0323 11.2718C24.3381 10.5105 24.4354 9.67344 24.3134 8.8511C24.1596 7.81392 23.6331 6.83464 22.8308 6.09356C22.0371 5.36055 21.008 4.89306 19.9329 4.77721C19.9081 4.77457 19.8833 4.77304 19.8583 4.77272C19.768 4.77146 19.6783 4.77462 19.5892 4.78185C18.4532 1.98081 15.7038 0 12.5 0C9.29625 0 6.54678 1.98081 5.41083 4.78185C5.3216 4.77457 5.23185 4.77146 5.14173 4.77272C5.11678 4.77304 5.09194 4.77457 5.06716 4.77721C3.99201 4.89306 2.9629 5.36055 2.16925 6.09356C1.36695 6.83464 0.840445 7.81392 0.686619 8.8511C0.564697 9.67349 0.661886 10.5105 0.967798 11.2718C1.61316 12.878 1.47473 14.4901 0.588111 15.6946C0.499148 15.8155 0.403435 15.9345 0.303609 16.0483C0.113923 16.2647 0.0567066 16.5671 0.154265 16.8379C0.251877 17.1086 0.488759 17.305 0.77284 17.3507C0.79773 17.3547 1.09963 17.4016 1.56707 17.4016C2.05523 17.4016 2.72385 17.3505 3.44558 17.1461C4.34443 16.8916 5.44606 16.3631 6.34291 15.2734C6.61766 15.9897 7.01374 16.6465 7.50633 17.218C6.10555 17.996 4.90453 19.0911 3.99259 20.4314C2.83085 22.1386 2.21681 24.1365 2.21681 26.209C2.21681 26.6458 2.57098 27 3.00783 27H21.9922C22.4291 27 22.7832 26.6458 22.7832 26.209C22.7832 24.1365 22.1692 22.1386 21.0075 20.4314C20.0955 19.0911 18.8945 17.996 17.4938 17.218C17.9865 16.6463 18.3827 15.9893 18.6575 15.2726C19.5542 16.3625 20.6557 16.8916 21.5545 17.1461C22.2763 17.3505 22.9449 17.4015 23.433 17.4015C23.9003 17.4015 24.2024 17.3547 24.2272 17.3507C24.5114 17.305 24.7483 17.1086 24.8458 16.8378C24.9433 16.5671 24.8861 16.2648 24.6964 16.0483ZM5.90822 12.8845C5.1124 14.955 3.53243 15.5902 2.38319 15.7642C3.10512 14.258 3.13603 12.425 2.43571 10.682C2.23153 10.1738 2.16951 9.63589 2.25151 9.08318C2.449 7.75143 3.56571 6.65824 4.95694 6.39246C4.88929 6.80062 4.85353 7.21944 4.85353 7.64648V8.04621C3.93284 8.37274 3.2715 9.25198 3.2715 10.2832C3.2715 11.5917 4.33605 12.6562 5.64455 12.6562H5.90822V12.8845ZM5.90822 11.0742H5.64455C5.20838 11.0742 4.85353 10.7194 4.85353 10.2832C4.85353 9.84704 5.20838 9.49219 5.64455 9.49219H5.90822V11.0742ZM21.1657 25.418H3.83433C4.09252 22.5524 5.74295 20.0172 8.2452 18.6178C8.47997 19.5906 8.89277 20.4741 9.44939 21.1735C10.2746 22.2102 11.358 22.7812 12.5 22.7812C13.642 22.7812 14.7254 22.2102 15.5506 21.1735C16.1073 20.4742 16.5201 19.5907 16.7548 18.6178C19.2571 20.0172 20.9075 22.5524 21.1657 25.418ZM10.0298 19.031C10.7932 19.3407 11.6269 19.5117 12.5 19.5117C13.3731 19.5117 14.2069 19.3407 14.9702 19.031C14.7975 19.4647 14.5766 19.8569 14.3128 20.1882C13.7939 20.8402 13.1501 21.1992 12.5 21.1992C11.8499 21.1992 11.2061 20.8402 10.6872 20.1882C10.4235 19.8569 10.2025 19.4647 10.0298 19.031ZM17.5098 12.9199C17.5098 15.6823 15.2624 17.9297 12.5 17.9297C9.73763 17.9297 7.49025 15.6823 7.49025 12.9199V9.43196C8.99434 9.20099 10.314 8.32027 11.1063 7.03677C12.5833 8.59312 14.6418 9.49219 16.8301 9.49219H17.5098V12.9199ZM18.5645 7.91016H16.8301C14.714 7.91016 12.7499 6.859 11.5761 5.09836C11.4085 4.84697 11.1126 4.71292 10.8129 4.75311C10.5135 4.79324 10.263 5.00033 10.1675 5.28699L10.1134 5.44936C9.62278 6.92123 8.25073 7.91016 6.69924 7.91016H6.43556V7.64648C6.43556 4.30255 9.15608 1.58203 12.5 1.58203C15.844 1.58203 18.5645 4.30255 18.5645 7.64648V7.91016ZM19.0918 9.49219H19.3555C19.7917 9.49219 20.1465 9.84704 20.1465 10.2832C20.1465 10.7194 19.7917 11.0742 19.3555 11.0742H19.0918V9.49219ZM22.6144 15.7589C22.4152 15.729 22.2033 15.6856 21.9854 15.6239C20.6129 15.2353 19.64 14.3146 19.0918 12.8867V12.6562H19.3555C20.664 12.6562 21.7285 11.5917 21.7285 10.2832C21.7285 9.25198 21.0672 8.37274 20.1465 8.04621V7.64648C20.1465 7.21944 20.1108 6.80063 20.0431 6.39241C21.4343 6.65819 22.551 7.75137 22.7485 9.08313C22.8305 9.63584 22.7685 10.1738 22.5644 10.6819C21.8648 12.4229 21.8948 14.2536 22.6144 15.7589Z" fill="white"/>
</svg>
