<svg width="30" height="22" viewBox="0 0 30 22" fill="none" xmlns="http://www.w3.org/2000/svg">
<path d="M29.9473 13.4029L24.7933 0.960025C24.7233 0.790993 24.589 0.656723 24.42 0.586738C24.251 0.51666 24.0611 0.51666 23.8921 0.586738L6.72964 7.69584C6.56061 7.76583 6.42634 7.9001 6.35636 8.06913C6.28637 8.23816 6.28637 8.42807 6.35645 8.59701L11.5112 21.0399C11.6212 21.3056 11.878 21.4659 12.1487 21.4659C12.2367 21.4659 12.3261 21.4489 12.4124 21.4132L29.5741 14.3041C29.926 14.1583 30.0931 13.7549 29.9473 13.4029ZM19.1908 13.5067L8.69954 8.37298L22.9781 2.45851L19.1908 13.5067ZM19.2866 15.0893C19.382 15.1361 19.4858 15.1596 19.5897 15.1596C19.6793 15.1596 19.769 15.1422 19.8537 15.107C20.0366 15.0314 20.178 14.8807 20.2422 14.6935L21.7201 10.3821L27.6609 13.6034L13.2695 19.565L15.1926 13.086L19.2866 15.0893ZM27.9528 12.1924L22.1738 9.05886L24.203 3.13951L27.9528 12.1924ZM8.31494 9.72046L13.9362 12.4711L12.0655 18.7738L8.31494 9.72046Z" fill="white"/>
<path d="M0.68974 11.3228H4.69354C5.07446 11.3228 5.38328 11.0141 5.38328 10.6331C5.38328 10.2521 5.07446 9.94336 4.69354 9.94336H0.68974C0.308819 9.94336 0 10.2521 0 10.6331C0 11.014 0.308819 11.3228 0.68974 11.3228Z" fill="white"/>
<path d="M7.54787 17.7859H0.68974C0.308819 17.7859 0 18.0946 0 18.4756C0 18.8566 0.308819 19.1654 0.68974 19.1654H7.54787C7.92879 19.1654 8.23761 18.8566 8.23761 18.4756C8.23761 18.0946 7.92879 17.7859 7.54787 17.7859Z" fill="white"/>
<path d="M0.68974 15.2442H6.12112C6.50204 15.2442 6.81086 14.9355 6.81086 14.5545C6.81086 14.1735 6.50204 13.8647 6.12112 13.8647H0.68974C0.308819 13.8647 0 14.1735 0 14.5545C0 14.9355 0.308819 15.2442 0.68974 15.2442Z" fill="white"/>
</svg>
