<svg width="27" height="27" viewBox="0 0 27 27" fill="none" xmlns="http://www.w3.org/2000/svg">
<path d="M21.4629 26.9999H23.0449C24.3534 26.9999 25.418 25.9353 25.418 24.6269C25.418 24.1389 25.418 14.8762 25.418 14.3437H26.209C26.6458 14.3437 27 13.9895 27 13.5527C27 13.1158 26.6458 12.7617 26.209 12.7617H25.418C25.418 11.9679 25.418 6.50207 25.418 5.53709C25.418 4.22859 24.3534 3.16405 23.0449 3.16405H20.6719V2.37304C20.6719 1.06454 19.6073 0 18.2989 0H11.9708C10.6623 0 9.59772 1.06454 9.59772 2.37304V3.16405H7.22468C5.91619 3.16405 4.85164 4.22859 4.85164 5.53709V12.7617H4.06063C3.62378 12.7617 3.26962 13.1158 3.26962 13.5527C3.26962 13.9895 3.62378 14.3437 4.06063 14.3437H4.85164V22.6164L0.359007 25.5463C-0.00691494 25.785 -0.110116 26.2751 0.128559 26.641C0.36697 27.0066 0.856923 27.1103 1.22321 26.8714L4.85164 24.505V24.6269C4.85164 25.9353 5.91619 26.9999 7.22468 26.9999H8.8067C10.1152 26.9999 11.1797 25.9353 11.1797 24.6269V23.8358H19.0899V24.6269C19.0899 25.9353 20.1544 26.9999 21.4629 26.9999ZM6.43367 22.2538V17.5077H23.8359V22.2538H6.43367ZM6.43367 7.91012H14.3438V15.9257H6.43367V7.91012ZM23.8359 7.91012V15.9257H15.9258V7.91012H23.8359ZM23.0449 25.4179H21.4629C21.0267 25.4179 20.6719 25.063 20.6719 24.6269V23.8358H23.8359V24.6269C23.8359 25.063 23.4811 25.4179 23.0449 25.4179ZM11.1797 2.37304C11.1797 1.93687 11.5346 1.58203 11.9708 1.58203H18.2989C18.735 1.58203 19.0899 1.93687 19.0899 2.37304V3.16405H11.1797V2.37304ZM7.22468 4.74608H23.0449C23.4811 4.74608 23.8359 5.10092 23.8359 5.53709V6.3281H6.43367V5.53709C6.43367 5.10092 6.78852 4.74608 7.22468 4.74608ZM9.59772 24.6269C9.59772 25.063 9.24287 25.4179 8.8067 25.4179H7.22468C6.78852 25.4179 6.43367 25.063 6.43367 24.6269V23.8358H9.59772V24.6269Z" fill="white"/>
<path d="M18.2988 19.0898H11.9706C11.5338 19.0898 11.1796 19.444 11.1796 19.8809C11.1796 20.3177 11.5338 20.6719 11.9706 20.6719H18.2988C18.7356 20.6719 19.0898 20.3177 19.0898 19.8809C19.0898 19.444 18.7356 19.0898 18.2988 19.0898Z" fill="white"/>
<path d="M8.80659 20.6719C9.24346 20.6719 9.59761 20.3177 9.59761 19.8809C9.59761 19.444 9.24346 19.0898 8.80659 19.0898C8.36973 19.0898 8.01558 19.444 8.01558 19.8809C8.01558 20.3177 8.36973 20.6719 8.80659 20.6719Z" fill="white"/>
<path d="M21.4628 20.6719C21.8997 20.6719 22.2538 20.3177 22.2538 19.8809C22.2538 19.444 21.8997 19.0898 21.4628 19.0898C21.0259 19.0898 20.6718 19.444 20.6718 19.8809C20.6718 20.3177 21.0259 20.6719 21.4628 20.6719Z" fill="white"/>
</svg>
