<svg width="26" height="26" viewBox="0 0 26 26" fill="none" xmlns="http://www.w3.org/2000/svg">
<path d="M0.761716 25.9999H14.5748C14.9955 25.9999 15.3365 25.6589 15.3365 25.2382V23.6132C15.3365 22.6202 14.6995 21.7734 13.813 21.459V20.4678C13.813 19.2619 12.8319 18.281 11.6261 18.281H3.71039C2.50454 18.281 1.52343 19.2619 1.52343 20.4678V21.459C0.636945 21.7734 0 22.6202 0 23.6132V25.2382C0 25.6589 0.340987 25.9999 0.761716 25.9999ZM3.71039 19.8044H11.6261C11.9919 19.8044 12.2896 20.102 12.2896 20.4678V21.3281H3.04706V20.4678C3.04706 20.102 3.34461 19.8044 3.71039 19.8044ZM1.52343 23.6132C1.52343 23.1931 1.86521 22.8515 2.28515 22.8515H13.0511C13.4713 22.8515 13.813 23.1931 13.813 23.6132V24.4765H1.52343V23.6132Z" fill="white"/>
<path d="M8.77443 15.8582C9.53 16.8617 10.965 17.0696 11.9746 16.3094C12.6471 15.8032 12.9599 14.9947 12.8683 14.2135C13.5233 14.102 14.1562 13.9198 14.7581 13.674L21.89 23.1468C22.6458 24.1509 24.081 24.3578 25.0902 23.5981C26.0967 22.8402 26.2993 21.4046 25.5413 20.3979L18.4095 10.9251C18.8118 10.4147 19.1619 9.85707 19.4502 9.25861C20.1843 9.56647 21.0466 9.47939 21.7115 8.97872C22.7182 8.22077 22.9207 6.78521 22.1628 5.77852L18.4974 0.910084C17.7395 -0.0966106 16.3039 -0.298941 15.2972 0.459005C14.6248 0.965229 14.3119 1.77356 14.4036 2.55472C11.5333 3.04368 9.08606 4.88588 7.82209 7.50884C7.08933 7.20158 6.23082 7.28489 5.56035 7.78953C4.55127 8.54926 4.34934 9.98065 5.10907 10.9897L8.77443 15.8582ZM17.3509 12.052L18.3681 13.403L17.1509 14.3193L16.1337 12.9684C16.5648 12.698 16.9718 12.3914 17.3509 12.052ZM24.1738 22.3809C23.8382 22.6337 23.3597 22.5662 23.107 22.2306L18.0672 15.5364L19.2843 14.6202L24.3241 21.3141C24.5769 21.6498 24.5092 22.1282 24.1738 22.3809ZM16.2137 1.67616C16.5503 1.42266 17.0285 1.49208 17.2805 1.82652L20.9456 6.69496C21.1983 7.03039 21.1309 7.50904 20.7953 7.76156C20.459 8.01487 19.982 7.94762 19.7287 7.6112L16.0633 2.74276C15.8106 2.40713 15.878 1.92868 16.2137 1.67616ZM15.0991 3.99483C15.4289 4.43322 17.9232 7.74628 18.2586 8.19161C17.219 10.7188 14.8898 12.4729 12.173 12.7734L9.01346 8.57644C10.0543 6.04631 12.3797 4.29575 15.0991 3.99483ZM6.47679 9.00669C6.81222 8.75397 7.28968 8.82003 7.54339 9.15704L11.2087 14.0255C11.2087 14.0255 11.2087 14.0255 11.2087 14.0257C11.4613 14.3611 11.3938 14.8396 11.0584 15.0923C10.7228 15.3448 10.2443 15.2774 9.99159 14.9419L6.32623 10.0735C6.07312 9.73706 6.14036 9.26 6.47679 9.00669Z" fill="white"/>
</svg>
