<svg width="27" height="27" viewBox="0 0 27 27" fill="none" xmlns="http://www.w3.org/2000/svg">
<path d="M24.627 0H15.0293C13.7208 0 12.6562 1.06455 12.6562 2.37305V8.75391C12.6562 10.0624 13.7208 11.127 15.0293 11.127H15.873V13.5C15.873 13.8199 16.0658 14.1083 16.3614 14.2308C16.6569 14.3532 16.9972 14.2855 17.2234 14.0594L20.1558 11.127H24.627C25.9355 11.127 27 10.0624 27 8.75391V2.37305C27 1.06455 25.9355 0 24.627 0V0ZM25.418 8.75391C25.418 9.19007 25.0631 9.54492 24.627 9.54492H19.8281C19.6183 9.54492 19.4172 9.62824 19.2688 9.77658L17.4551 11.5903V10.3359C17.4551 9.89909 17.1009 9.54492 16.6641 9.54492H15.0293C14.5931 9.54492 14.2383 9.19007 14.2383 8.75391V2.37305C14.2383 1.93688 14.5931 1.58203 15.0293 1.58203H24.627C25.0631 1.58203 25.418 1.93688 25.418 2.37305V8.75391Z" fill="white"/>
<path d="M20.8508 4.2395L19.0371 6.05325L18.4099 5.42602C18.101 5.11711 17.6001 5.11711 17.2912 5.42602C16.9823 5.73494 16.9823 6.23576 17.2912 6.54468L18.4778 7.7312C18.7866 8.04007 19.2875 8.04012 19.5964 7.7312L21.9694 5.35816C22.2784 5.04924 22.2784 4.54842 21.9694 4.2395C21.6606 3.93058 21.1597 3.93058 20.8508 4.2395Z" fill="white"/>
<path d="M1.58214 23.0428C1.58214 23.0435 1.58203 23.0442 1.58203 23.0449V26.209C1.58203 26.6458 1.9362 27 2.37305 27H11.8652C12.2057 27 12.508 26.7822 12.6156 26.4592L13.4904 23.8349C14.779 23.8116 15.8203 22.7569 15.8203 21.4629C15.8203 20.7023 15.4602 20.0247 14.902 19.5901L15.7809 16.9106C15.86 16.6696 15.8187 16.4053 15.6699 16.2C15.5212 15.9946 15.2829 15.873 15.0294 15.873H14.1588C13.7913 14.07 12.1933 12.709 10.2833 12.709H3.95508C1.77425 12.709 0 14.4832 0 16.6641V19.8809C0 21.1721 0.622107 22.3206 1.58214 23.0428ZM3.16406 23.7564C3.41972 23.8085 3.68423 23.8359 3.95508 23.8359H5.49039L4.96594 25.418H3.16406V23.7564ZM6.63267 25.418C6.64601 25.3777 9.24534 17.5378 9.27234 17.4551H13.9374L13.4012 19.0898H11.8652C11.4284 19.0898 11.0742 19.444 11.0742 19.8809V23.0449C11.0742 23.4676 11.406 23.8118 11.8232 23.8338L11.2951 25.418H6.63267ZM13.4473 22.2539C13.2083 22.2539 13.0144 22.2539 12.6562 22.2539V20.6719H13.4473C13.8834 20.6719 14.2383 21.0267 14.2383 21.4629C14.2383 21.8991 13.8834 22.2539 13.4473 22.2539ZM1.58203 16.6641C1.58203 15.3556 2.64658 14.291 3.95508 14.291H10.2832C11.3144 14.291 12.1937 14.9524 12.5202 15.873H8.70117C8.36019 15.873 8.0576 16.0915 7.95034 16.4152L7.06372 19.0898H4.74609V16.6641C4.74609 16.2272 4.39193 15.873 3.95508 15.873C3.51823 15.873 3.16406 16.2272 3.16406 16.6641V19.8809C3.16406 20.3177 3.51823 20.6719 3.95508 20.6719H6.53927L6.01483 22.2539H3.95508C2.64658 22.2539 1.58203 21.1894 1.58203 19.8809V16.6641Z" fill="white"/>
<path d="M11.0742 8.75391C11.0742 6.57308 9.29997 4.79883 7.11914 4.79883C4.93831 4.79883 3.16406 6.57308 3.16406 8.75391C3.16406 10.9347 4.93831 12.709 7.11914 12.709C9.29997 12.709 11.0742 10.9347 11.0742 8.75391ZM7.11914 11.127C5.81064 11.127 4.74609 10.0624 4.74609 8.75391C4.74609 7.44541 5.81064 6.38086 7.11914 6.38086C8.42764 6.38086 9.49219 7.44541 9.49219 8.75391C9.49219 10.0624 8.42764 11.127 7.11914 11.127Z" fill="white"/>
</svg>
