<svg width="45" height="41" viewBox="0 0 45 41" fill="none" xmlns="http://www.w3.org/2000/svg">
<path d="M5.74076 3.16669H15.2223L19.963 14L14.0371 17.25C16.5757 21.955 20.7416 25.7629 25.889 28.0834L29.4446 22.6667L41.2965 27V35.6667C41.2965 36.816 40.797 37.9182 39.9079 38.7308C39.0188 39.5435 37.813 40 36.5557 40C27.3095 39.4864 18.5886 35.8974 12.0385 29.9102C5.48832 23.923 1.5619 15.9516 1 7.50002C1 6.35075 1.49947 5.24855 2.38854 4.43589C3.2776 3.62323 4.48343 3.16669 5.74076 3.16669" stroke="#0070B1" stroke-width="2" stroke-linecap="round" stroke-linejoin="round"/>
<path d="M29.4446 9.66669C30.7019 9.66669 31.9077 10.1232 32.7968 10.9359C33.6859 11.7486 34.1854 12.8508 34.1854 14" stroke="#0070B1" stroke-width="2" stroke-linecap="round" stroke-linejoin="round"/>
<path d="M29.4446 1C33.2165 1 36.834 2.36964 39.5012 4.80761C42.1683 7.24559 43.6667 10.5522 43.6667 14" stroke="#0070B1" stroke-width="2" stroke-linecap="round" stroke-linejoin="round"/>
</svg>
