<svg width="27" height="27" viewBox="0 0 27 27" fill="none" xmlns="http://www.w3.org/2000/svg">
<path d="M11.75 22.75C14.1906 22.7495 16.5609 21.9325 18.4834 20.429L24.5279 26.4735L26.4721 24.5293L20.4276 18.4847C21.9319 16.562 22.7494 14.1912 22.75 11.75C22.75 5.68488 17.8151 0.75 11.75 0.75C5.68488 0.75 0.75 5.68488 0.75 11.75C0.75 17.8151 5.68488 22.75 11.75 22.75ZM11.75 3.5C16.2999 3.5 20 7.20012 20 11.75C20 16.2999 16.2999 20 11.75 20C7.20012 20 3.5 16.2999 3.5 11.75C3.5 7.20012 7.20012 3.5 11.75 3.5Z" fill="#0070B1"/>
</svg>
