<svg width="36" height="32" viewBox="0 0 36 32" fill="none" xmlns="http://www.w3.org/2000/svg">
<path d="M34.9141 12.0938H24.9141C24.7422 12.0938 24.6016 12.2344 24.6016 12.4062V14.2812C24.6016 14.4531 24.7422 14.5938 24.9141 14.5938H34.9141C35.086 14.5938 35.2266 14.4531 35.2266 14.2812V12.4062C35.2266 12.2344 35.086 12.0938 34.9141 12.0938ZM29.6797 17.4062H24.9141C24.7422 17.4062 24.6016 17.5469 24.6016 17.7188V19.5938C24.6016 19.7656 24.7422 19.9062 24.9141 19.9062H29.6797C29.8516 19.9062 29.9922 19.7656 29.9922 19.5938V17.7188C29.9922 17.5469 29.8516 17.4062 29.6797 17.4062ZM16.6445 8.59766H14.9531C14.7109 8.59766 14.5156 8.79297 14.5156 9.03516V18.7227C14.5156 18.8633 14.582 18.9922 14.6953 19.0742L20.5117 23.3164C20.707 23.457 20.9805 23.418 21.1211 23.2227L22.125 21.8516V21.8477C22.2656 21.6523 22.2227 21.3789 22.0273 21.2383L17.0781 17.6602V9.03516C17.082 8.79297 16.8828 8.59766 16.6445 8.59766Z" fill="white"/>
<path d="M29.4375 22.3242H27.1797C26.961 22.3242 26.7539 22.4375 26.6367 22.625C26.1406 23.4101 25.5625 24.1367 24.8985 24.8007C23.7539 25.9453 22.4219 26.8437 20.9414 27.4687C19.4063 28.1172 17.7774 28.4453 16.0977 28.4453C14.4141 28.4453 12.7852 28.1172 11.2539 27.4687C9.77346 26.8437 8.44143 25.9453 7.2969 24.8007C6.15237 23.6562 5.25393 22.3242 4.62893 20.8437C3.98049 19.3125 3.65237 17.6836 3.65237 16C3.65237 14.3164 3.98049 12.6914 4.62893 11.1562C5.25393 9.67575 6.15237 8.34372 7.2969 7.19919C8.44143 6.05466 9.77346 5.15622 11.2539 4.53122C12.7852 3.88278 14.418 3.55466 16.0977 3.55466C17.7813 3.55466 19.4102 3.88278 20.9414 4.53122C22.4219 5.15622 23.7539 6.05466 24.8985 7.19919C25.5625 7.86325 26.1406 8.58981 26.6367 9.37497C26.7539 9.56247 26.961 9.67575 27.1797 9.67575H29.4375C29.707 9.67575 29.8789 9.3945 29.7578 9.15622C27.211 4.08981 22.0469 0.796846 16.2813 0.73044C7.83987 0.624971 0.828152 7.53513 0.812527 15.9687C0.796902 24.4179 7.64455 31.2734 16.0938 31.2734C21.9336 31.2734 27.1836 27.9687 29.7578 22.8437C29.8789 22.6054 29.7031 22.3242 29.4375 22.3242Z" fill="white"/>
</svg>
