<svg width="39" height="39" viewBox="0 0 39 39" fill="none" xmlns="http://www.w3.org/2000/svg">
<path d="M32.2969 4.875H6.70312C4.79862 4.875 3.25 6.33262 3.25 8.125V30.875C3.25 32.6674 4.79862 34.125 6.70312 34.125H32.2969C34.2014 34.125 35.75 32.6674 35.75 30.875V8.125C35.75 6.33262 34.2014 4.875 32.2969 4.875ZM32.2969 30.875H6.70312C6.6105 30.875 6.54713 30.849 6.5195 30.849C6.50813 30.849 6.50163 30.8523 6.5 30.862L6.4805 8.19975C6.49187 8.1835 6.565 8.125 6.70312 8.125H32.2969C32.4252 8.12663 32.4951 8.1705 32.5 8.138L32.5195 30.8003C32.5081 30.8165 32.435 30.875 32.2969 30.875Z" fill="#F3F3F3"/>
<path d="M9.75 11.375H19.5V21.125H9.75V11.375ZM21.125 24.375H9.75V27.625H29.25V24.375H22.75H21.125ZM22.75 17.875H29.25V21.125H22.75V17.875ZM22.75 11.375H29.25V14.625H22.75V11.375Z" fill="#F3F3F3"/>
</svg>
