<svg width="70" height="70" viewBox="0 0 70 70" fill="none" xmlns="http://www.w3.org/2000/svg">
<g opacity="0.12">
<path d="M27.7083 35C27.7083 36.6042 26.3958 37.9167 24.7917 37.9167C23.1875 37.9167 21.875 36.6042 21.875 35C21.875 33.3958 23.1875 32.0833 24.7917 32.0833C26.3958 32.0833 27.7083 33.3958 27.7083 35ZM40.1042 29.1667C41.7083 29.1667 43.0208 27.8542 43.0208 26.25C43.0208 24.6458 41.7083 23.3333 40.1042 23.3333C38.5 23.3333 37.1875 24.6458 37.1875 26.25C37.1875 27.8542 38.5 29.1667 40.1042 29.1667ZM29.8958 29.1667C31.5 29.1667 32.8125 27.8542 32.8125 26.25C32.8125 24.6458 31.5 23.3333 29.8958 23.3333C28.2917 23.3333 26.9792 24.6458 26.9792 26.25C26.9792 27.8542 28.2917 29.1667 29.8958 29.1667ZM29.8958 40.8333C28.2917 40.8333 26.9792 42.1458 26.9792 43.75C26.9792 45.3542 28.2917 46.6667 29.8958 46.6667C31.5 46.6667 32.8125 45.3542 32.8125 43.75C32.8125 42.1458 31.5 40.8333 29.8958 40.8333ZM64.1667 32.8125V37.1875C64.1667 38.3833 63.175 39.375 61.9792 39.375C60.7833 39.375 59.7917 38.3833 59.7917 37.1875H55.3C54.8795 41.0893 53.3399 44.7864 50.8667 47.8333L54.0458 51.0125L54.075 50.9833C54.9208 50.1375 56.3208 50.1375 57.1667 50.9833C58.0125 51.8292 58.0125 53.2292 57.1667 54.075L54.075 57.1667C53.2292 58.0125 51.8292 58.0125 50.9833 57.1667C50.58 56.7609 50.3512 56.2135 50.3457 55.6413C50.3403 55.0692 50.5586 54.5176 50.9542 54.1042L47.775 50.925C44.7296 53.3773 41.0453 54.9057 37.1583 55.3292V59.8208H37.1875C38.3833 59.8208 39.375 60.8125 39.375 62.0083C39.375 63.2042 38.3833 64.1958 37.1875 64.1958H32.8125C31.6167 64.1958 30.625 63.2042 30.625 62.0083C30.625 60.8125 31.5875 59.85 32.7833 59.8208V55.3C28.9037 54.8819 25.2274 53.3526 22.1958 50.8958L19.0166 54.075L19.0458 54.1042C19.8916 54.95 19.8916 56.35 19.0458 57.1958C18.2 58.0417 16.8 58.0417 15.9541 57.1958L12.8333 54.075C12.4265 53.6633 12.1984 53.1079 12.1984 52.5292C12.1984 51.9504 12.4265 51.395 12.8333 50.9833C13.6791 50.1375 15.05 50.1375 15.8958 50.9542L19.075 47.775C16.6203 44.7451 15.1002 41.0664 14.7 37.1875H10.2083C10.2083 38.3833 9.21665 39.375 8.02081 39.375C6.82498 39.375 5.83331 38.3833 5.83331 37.1875V32.8125C5.83331 31.6167 6.82498 30.625 8.02081 30.625C9.21665 30.625 10.2083 31.6167 10.2083 32.8125H14.7C15.1375 28.8167 16.7125 25.2 19.075 22.225L15.8958 19.0458C15.05 19.8625 13.6791 19.8625 12.8333 19.0167C12.4265 18.605 12.1984 18.0496 12.1984 17.4708C12.1984 16.8921 12.4265 16.3367 12.8333 15.925L15.925 12.8333C16.7708 11.9875 18.1708 11.9875 19.0166 12.8333C19.8625 13.6792 19.8625 15.0792 19.0166 15.925L18.9875 15.9542L22.1666 19.1333C25.2011 16.6814 28.876 15.1528 32.7542 14.7292V10.2083C32.1798 10.1984 31.6322 9.96387 31.2287 9.55495C30.8252 9.14602 30.598 8.5953 30.5958 8.02084C30.6109 7.44039 30.8501 6.88832 31.2634 6.48047C31.6767 6.07262 32.2319 5.84069 32.8125 5.83334H37.1875C38.3833 5.83334 39.375 6.82501 39.375 8.02084C39.375 9.21668 38.3833 10.2083 37.1875 10.2083H37.1583V14.7C41.1542 15.1083 44.8 16.7125 47.775 19.1042L50.9542 15.925C50.7548 15.7221 50.5974 15.4819 50.491 15.2181C50.3846 14.9543 50.3312 14.6721 50.3339 14.3877C50.3366 14.1033 50.3953 13.8222 50.5068 13.5605C50.6182 13.2988 50.7801 13.0616 50.9833 12.8625C51.8292 12.0167 53.2292 12.0167 54.075 12.8625L57.1667 15.9542C58.0125 16.8 58.0125 18.2 57.1667 19.0458C56.3208 19.8917 54.9208 19.8917 54.075 19.0458L54.0458 19.0167L50.8667 22.1667C53.3332 25.2177 54.8719 28.9126 55.3 32.8125H59.7917C59.7917 31.6167 60.7833 30.625 61.9792 30.625C63.175 30.625 64.1667 31.6167 64.1667 32.8125ZM49.5833 35C49.5833 26.95 43.05 20.4167 35 20.4167C26.95 20.4167 20.4166 26.95 20.4166 35C20.4166 43.05 26.95 49.5833 35 49.5833C43.05 49.5833 49.5833 43.05 49.5833 35ZM35 32.0833C33.3958 32.0833 32.0833 33.3958 32.0833 35C32.0833 36.6042 33.3958 37.9167 35 37.9167C36.6042 37.9167 37.9167 36.6042 37.9167 35C37.9167 33.3958 36.6042 32.0833 35 32.0833ZM45.2083 32.0833C43.6042 32.0833 42.2917 33.3958 42.2917 35C42.2917 36.6042 43.6042 37.9167 45.2083 37.9167C46.8125 37.9167 48.125 36.6042 48.125 35C48.125 33.3958 46.8125 32.0833 45.2083 32.0833ZM40.1042 40.8333C38.5 40.8333 37.1875 42.1458 37.1875 43.75C37.1875 45.3542 38.5 46.6667 40.1042 46.6667C41.7083 46.6667 43.0208 45.3542 43.0208 43.75C43.0208 42.1458 41.7083 40.8333 40.1042 40.8333Z" fill="#F3F3F3"/>
</g>
</svg>
