<svg width="60" height="45" viewBox="0 0 60 45" fill="none" xmlns="http://www.w3.org/2000/svg">
<g opacity="0.12">
<path d="M59.1925 35.2857C56.5082 28.2833 51.8655 24.8295 46.9501 21.1727C45.1639 19.8437 43.1223 18.7379 41.2779 17.8782C46.35 15.7218 53.5341 12.5639 55.2145 11.2868C57.1111 9.84617 59.9236 6.74666 59.8988 4.11269C59.8888 2.9914 59.3724 2.02151 58.4065 1.30809C56.217 -0.309651 52.5311 -0.081341 50.5293 0.19881C48.2726 0.514324 45.2445 1.32044 43.5123 2.6364C43.3827 2.73493 43.2362 2.8575 43.0646 3.02058C42.9913 2.81699 42.908 2.62267 42.8128 2.4383C42.1385 1.13265 40.8595 0.288761 39.2116 0.0621677C37.614 -0.157902 35.8351 0.21014 34.0677 1.12578C31.2799 2.57048 28.7984 5.21922 28.2962 7.28705C28.1735 7.79173 28.0522 8.81861 28.255 11.9027C27.1774 11.6613 26.0458 11.6222 24.9564 11.7798C24.1351 9.55126 21.4092 7.90949 18.1796 7.90949C14.3024 7.90949 11.1484 10.2753 11.1484 13.1833C11.1484 13.6704 11.2386 14.1422 11.4047 14.5905C9.64233 16.5756 3.95279 23.4191 0 33.1495L4.48425 34.1744C7.68448 26.2961 12.166 20.3155 14.3893 17.6214C15.4843 18.1491 16.7848 18.4567 18.1796 18.4567C18.2593 18.4567 18.338 18.454 18.4172 18.4522C18.4273 18.8965 18.5124 19.3414 18.6763 19.7754C18.9006 20.37 19.2627 20.9245 19.7397 21.4172L13.2079 24.4429L13.2596 25.4663C13.3521 27.3103 13.3644 32.6091 12.3235 34.9516L16.7702 36.0633C17.9773 33.348 18.0254 28.525 17.9791 26.3648L23.7076 23.7109L26.2083 28.7351C24.7078 30.3209 21.4105 33.9869 20.023 36.9632L24.4482 38.1232C25.9932 34.8088 30.672 30.105 30.7192 30.0583L31.4882 29.2892L29.4164 25.1275C29.5244 25.1312 29.632 25.1336 29.7395 25.1336C30.8862 25.1336 32.0091 24.9191 33.0066 24.5229C33.3293 25.272 33.7257 25.9854 34.1972 26.6655L37.3196 32.7602C35.8873 34.2114 32.9727 37.3779 31.4456 40.533L35.8521 41.7323C37.6135 38.0927 41.7636 34.1857 41.8048 34.1472L42.6485 33.3593L42.5345 33.1372C43.0367 33.4015 43.5397 33.6611 44.0401 33.9193C48.6992 36.3229 53.1001 38.5933 55.0685 43.7276L55.5565 45H59.8993V43.157C59.9057 39.1738 59.6677 36.5258 59.1925 35.2857ZM46.848 5.10626C47.5026 4.60913 49.2723 3.95098 51.3886 3.6547C52.1086 3.5541 52.7257 3.51531 53.2398 3.51531C54.3205 3.51531 54.9463 3.68662 55.1175 3.81262C55.2026 3.87545 55.2109 4.07698 55.2118 4.13741C55.2232 5.39397 53.465 7.61217 51.8788 8.81689C50.8855 9.57152 45.7311 11.9085 40.5121 14.1549C43.2687 9.7394 45.954 5.7857 46.848 5.10626ZM32.9077 7.91704C33.159 6.88158 34.8482 4.99434 36.7323 4.01827C37.5343 3.60285 38.0777 3.5081 38.3139 3.51599C38.4178 3.6341 38.7575 4.12882 38.7456 5.52512C38.7337 6.83489 38.5666 8.47597 38.356 9.34218C38.3514 9.36106 38.3501 9.38029 38.3464 9.39917C38.0255 9.89252 37.6849 10.4216 37.3233 10.9908C36.5424 12.2199 35.7957 13.4253 35.1599 14.4649C34.9608 14.3392 34.7525 14.2204 34.5337 14.1116C34.0494 13.8706 33.5591 13.6447 33.0656 13.4349C32.7095 9.19523 32.8528 8.14329 32.9077 7.91704ZM15.8359 13.1829C15.8359 12.2137 16.8874 11.4251 18.1796 11.4251C19.4724 11.4251 20.5234 12.2137 20.5234 13.1829C20.5234 14.1525 19.4724 14.9407 18.1796 14.9407C16.8874 14.9407 15.8359 14.1525 15.8359 13.1829ZM29.0817 21.5428C28.2838 21.3554 27.4608 21.1133 26.6354 20.8229C25.7387 20.5074 24.8914 20.1531 24.1164 19.7699C23.1894 19.3116 22.8442 18.3994 23.3144 17.6482L24.2404 16.1681C24.6158 15.5683 25.4279 15.202 26.2798 15.202C26.4917 15.202 26.7069 15.2247 26.9174 15.272C27.8362 15.4791 28.7105 15.728 29.5161 16.0116C30.3246 16.2962 31.1403 16.6422 31.9414 17.0412C32.8583 17.4975 33.1961 18.4062 32.7274 19.155L31.7894 20.654C31.3156 21.4117 30.152 21.7938 29.0817 21.5428ZM46.6965 31.0227C41.6299 28.4093 37.5897 26.3243 36.7694 20.9712L36.9713 20.6485C37.0688 20.4923 37.1544 20.3333 37.2304 20.1723C39.1557 20.9753 41.6309 22.1673 43.6491 23.6687C48.9056 27.5791 52.2849 30.2948 54.5206 35.8333C52.1086 33.8146 49.3094 32.3705 46.6965 31.0227Z" fill="white"/>
</g>
</svg>
