<svg width="49" height="42" viewBox="0 0 49 42" fill="none" xmlns="http://www.w3.org/2000/svg">
<g opacity="0.12">
<path d="M46.3746 21.3853C46.3746 8.65153 35.9769 0 24.4077 0C12.9605 0 2.44077 8.46597 2.44077 21.5244C0.976308 22.3131 0 23.7975 0 25.5139V30.1528C0 32.7042 2.19669 34.7917 4.88154 34.7917C6.22396 34.7917 7.32231 33.7479 7.32231 32.4722V21.3157C7.32231 12.4322 14.5226 4.66208 23.8707 4.40694C26.1586 4.34082 28.4371 4.7118 30.5713 5.49788C32.7056 6.28396 34.652 7.46916 36.2954 8.98324C37.9387 10.4973 39.2455 12.3095 40.1383 14.3123C41.0312 16.3151 41.4918 18.4679 41.4931 20.6431V37.1111H24.4077C23.0653 37.1111 21.9669 38.1549 21.9669 39.4306C21.9669 40.7062 23.0653 41.75 24.4077 41.75H41.4931C44.1779 41.75 46.3746 39.6625 46.3746 37.1111V34.2814C47.8147 33.5624 48.8154 32.1475 48.8154 30.4775V25.1428C48.8154 23.5192 47.8147 22.1043 46.3746 21.3853Z" fill="white"/>
<path d="M17.0854 25.5139C18.4334 25.5139 19.5262 24.4755 19.5262 23.1945C19.5262 21.9135 18.4334 20.875 17.0854 20.875C15.7374 20.875 14.6446 21.9135 14.6446 23.1945C14.6446 24.4755 15.7374 25.5139 17.0854 25.5139Z" fill="white"/>
<path d="M31.73 25.5139C33.078 25.5139 34.1708 24.4755 34.1708 23.1945C34.1708 21.9135 33.078 20.875 31.73 20.875C30.382 20.875 29.2893 21.9135 29.2893 23.1945C29.2893 24.4755 30.382 25.5139 31.73 25.5139Z" fill="white"/>
<path d="M39.0524 18.6251C38.4705 15.3643 36.6932 12.4043 34.0353 10.2691C31.3774 8.13383 28.0103 6.96106 24.5299 6.95834C17.1343 6.95834 9.1774 12.7801 9.812 21.9188C12.8218 20.7483 15.4801 18.8884 17.5498 16.5047C19.6195 14.121 21.0364 11.2876 21.6741 8.25723C24.8716 14.3574 31.4372 18.5556 39.0524 18.6251Z" fill="white"/>
</g>
</svg>
